<mxfile host="app.diagrams.net" modified="2023-09-19T13:55:23.418Z" agent="Mozilla/5.0 (Windows NT 10.0; Win64; x64) AppleWebKit/537.36 (KHTML, like Gecko) Chrome/116.0.0.0 Safari/537.36" etag="eDakoXJns-RsbKE4aqGB" version="21.7.1" type="device">
  <diagram name="페이지-1" id="uMQmpPxXBUdLCJVfFvuU">
    <mxGraphModel dx="8061" dy="3802" grid="1" gridSize="10" guides="1" tooltips="1" connect="1" arrows="1" fold="1" page="1" pageScale="1" pageWidth="827" pageHeight="1169" math="0" shadow="0">
      <root>
        <mxCell id="0" />
        <mxCell id="1" parent="0" />
        <mxCell id="gLvKTpUvaCiPlKPC_Aii-118" value="" style="endArrow=classic;html=1;rounded=0;exitX=0.5;exitY=0;exitDx=0;exitDy=0;" edge="1" parent="1">
          <mxGeometry width="50" height="50" relative="1" as="geometry">
            <mxPoint x="-505.61999999999955" y="40" as="sourcePoint" />
            <mxPoint x="-506" y="-30" as="targetPoint" />
          </mxGeometry>
        </mxCell>
        <mxCell id="gLvKTpUvaCiPlKPC_Aii-134" value="&lt;span style=&quot;font-size: 18px;&quot;&gt;fileboard&lt;/span&gt;" style="shape=cube;whiteSpace=wrap;html=1;boundedLbl=1;backgroundOutline=1;darkOpacity=0.05;darkOpacity2=0.1;" vertex="1" parent="1">
          <mxGeometry x="-330" y="-444" width="120" height="110" as="geometry" />
        </mxCell>
        <mxCell id="gLvKTpUvaCiPlKPC_Aii-143" value="&lt;font style=&quot;font-size: 19px;&quot;&gt;AdminController&lt;br style=&quot;border-color: var(--border-color);&quot;&gt;.java&lt;/font&gt;" style="shape=hexagon;perimeter=hexagonPerimeter2;whiteSpace=wrap;html=1;fixedSize=1;fillColor=#8FFBFF;" vertex="1" parent="1">
          <mxGeometry x="-590" y="40" width="170" height="80" as="geometry" />
        </mxCell>
        <mxCell id="gLvKTpUvaCiPlKPC_Aii-144" value="&lt;span style=&quot;font-size: 18px;&quot;&gt;questionList.do&lt;/span&gt;" style="text;html=1;strokeColor=none;fillColor=#FFFF78;align=center;verticalAlign=middle;whiteSpace=wrap;rounded=0;" vertex="1" parent="1">
          <mxGeometry x="-910" y="100" width="160" height="100" as="geometry" />
        </mxCell>
        <mxCell id="gLvKTpUvaCiPlKPC_Aii-145" value="" style="endArrow=classic;html=1;rounded=0;exitX=0;exitY=0.5;exitDx=0;exitDy=0;entryX=1;entryY=0.5;entryDx=0;entryDy=0;" edge="1" parent="1" target="gLvKTpUvaCiPlKPC_Aii-146">
          <mxGeometry width="50" height="50" relative="1" as="geometry">
            <mxPoint x="-910" y="150" as="sourcePoint" />
            <mxPoint x="-1030" y="150" as="targetPoint" />
          </mxGeometry>
        </mxCell>
        <mxCell id="gLvKTpUvaCiPlKPC_Aii-146" value="&lt;font style=&quot;font-size: 19px;&quot;&gt;noAnswerList.jsp&lt;/font&gt;" style="rounded=0;whiteSpace=wrap;html=1;" vertex="1" parent="1">
          <mxGeometry x="-1210" y="120" width="160" height="60" as="geometry" />
        </mxCell>
        <mxCell id="gLvKTpUvaCiPlKPC_Aii-147" value="미답변질문 페이지로&lt;br&gt;&amp;nbsp;이동" style="text;html=1;strokeColor=none;fillColor=none;align=center;verticalAlign=middle;whiteSpace=wrap;rounded=0;" vertex="1" parent="1">
          <mxGeometry x="-1050" y="120" width="130" height="30" as="geometry" />
        </mxCell>
        <mxCell id="gLvKTpUvaCiPlKPC_Aii-148" value="" style="endArrow=classic;html=1;rounded=0;entryX=1;entryY=0.5;entryDx=0;entryDy=0;" edge="1" parent="1" source="gLvKTpUvaCiPlKPC_Aii-143">
          <mxGeometry width="50" height="50" relative="1" as="geometry">
            <mxPoint x="-650" y="150" as="sourcePoint" />
            <mxPoint x="-750" y="150" as="targetPoint" />
          </mxGeometry>
        </mxCell>
        <mxCell id="gLvKTpUvaCiPlKPC_Aii-149" value="질문관리 페이지 요청" style="text;html=1;strokeColor=none;fillColor=none;align=center;verticalAlign=middle;whiteSpace=wrap;rounded=0;" vertex="1" parent="1">
          <mxGeometry x="-730" y="90" width="100" height="30" as="geometry" />
        </mxCell>
        <mxCell id="gLvKTpUvaCiPlKPC_Aii-150" value="&lt;span style=&quot;font-size: 18px;&quot;&gt;admin&lt;br&gt;FileList.do&lt;br&gt;&lt;/span&gt;" style="text;html=1;strokeColor=none;fillColor=#FFFF78;align=center;verticalAlign=middle;whiteSpace=wrap;rounded=0;" vertex="1" parent="1">
          <mxGeometry x="-560" y="-134" width="120" height="100" as="geometry" />
        </mxCell>
        <mxCell id="gLvKTpUvaCiPlKPC_Aii-151" value="자료실 관리페이지 요청" style="text;html=1;strokeColor=none;fillColor=none;align=center;verticalAlign=middle;whiteSpace=wrap;rounded=0;" vertex="1" parent="1">
          <mxGeometry x="-502.5" y="-14" width="140" height="30" as="geometry" />
        </mxCell>
        <mxCell id="gLvKTpUvaCiPlKPC_Aii-152" value="" style="endArrow=classic;html=1;rounded=0;exitX=0.5;exitY=0;exitDx=0;exitDy=0;" edge="1" parent="1">
          <mxGeometry width="50" height="50" relative="1" as="geometry">
            <mxPoint x="-500" y="-134" as="sourcePoint" />
            <mxPoint x="-500" y="-204" as="targetPoint" />
          </mxGeometry>
        </mxCell>
        <mxCell id="gLvKTpUvaCiPlKPC_Aii-153" value="&lt;span style=&quot;font-size: 19px;&quot;&gt;adminFileboard.jsp&lt;br&gt;&lt;/span&gt;" style="rounded=0;whiteSpace=wrap;html=1;" vertex="1" parent="1">
          <mxGeometry x="-590" y="-264" width="180" height="60" as="geometry" />
        </mxCell>
        <mxCell id="gLvKTpUvaCiPlKPC_Aii-154" value="&lt;font style=&quot;font-size: 18px;&quot;&gt;notice&lt;/font&gt;" style="shape=cube;whiteSpace=wrap;html=1;boundedLbl=1;backgroundOutline=1;darkOpacity=0.05;darkOpacity2=0.1;" vertex="1" parent="1">
          <mxGeometry x="-370" y="-129.5" width="110" height="91" as="geometry" />
        </mxCell>
        <mxCell id="gLvKTpUvaCiPlKPC_Aii-155" value="" style="endArrow=classic;startArrow=classic;html=1;rounded=0;entryX=1;entryY=0.5;entryDx=0;entryDy=0;exitX=0.005;exitY=0.495;exitDx=0;exitDy=0;exitPerimeter=0;" edge="1" parent="1" source="gLvKTpUvaCiPlKPC_Aii-154" target="gLvKTpUvaCiPlKPC_Aii-150">
          <mxGeometry width="50" height="50" relative="1" as="geometry">
            <mxPoint x="-670" y="-190" as="sourcePoint" />
            <mxPoint x="-560" y="-174" as="targetPoint" />
          </mxGeometry>
        </mxCell>
        <mxCell id="gLvKTpUvaCiPlKPC_Aii-156" value="DB요청" style="text;html=1;strokeColor=none;fillColor=none;align=center;verticalAlign=middle;whiteSpace=wrap;rounded=0;" vertex="1" parent="1">
          <mxGeometry x="-460" y="-114" width="120" height="30" as="geometry" />
        </mxCell>
        <mxCell id="gLvKTpUvaCiPlKPC_Aii-157" value="DB전달" style="text;html=1;strokeColor=none;fillColor=none;align=center;verticalAlign=middle;whiteSpace=wrap;rounded=0;" vertex="1" parent="1">
          <mxGeometry x="-460" y="-84" width="120" height="30" as="geometry" />
        </mxCell>
        <mxCell id="gLvKTpUvaCiPlKPC_Aii-158" value="자료실 관리페이지&lt;br&gt;출력" style="text;html=1;strokeColor=none;fillColor=none;align=center;verticalAlign=middle;whiteSpace=wrap;rounded=0;" vertex="1" parent="1">
          <mxGeometry x="-510" y="-184" width="140" height="30" as="geometry" />
        </mxCell>
        <mxCell id="gLvKTpUvaCiPlKPC_Aii-159" value="자료실 삭제 요청" style="text;html=1;strokeColor=none;fillColor=none;align=center;verticalAlign=middle;whiteSpace=wrap;rounded=0;" vertex="1" parent="1">
          <mxGeometry x="-500" y="-314" width="110" height="30" as="geometry" />
        </mxCell>
        <mxCell id="gLvKTpUvaCiPlKPC_Aii-160" value="" style="endArrow=classic;html=1;rounded=0;exitX=0.5;exitY=0;exitDx=0;exitDy=0;" edge="1" parent="1" source="gLvKTpUvaCiPlKPC_Aii-153">
          <mxGeometry width="50" height="50" relative="1" as="geometry">
            <mxPoint x="-610" y="-244" as="sourcePoint" />
            <mxPoint x="-500" y="-344" as="targetPoint" />
          </mxGeometry>
        </mxCell>
        <mxCell id="gLvKTpUvaCiPlKPC_Aii-161" value="&lt;span style=&quot;font-size: 18px;&quot;&gt;delete.do&lt;br&gt;&lt;/span&gt;" style="text;html=1;strokeColor=none;fillColor=#FFFF78;align=center;verticalAlign=middle;whiteSpace=wrap;rounded=0;" vertex="1" parent="1">
          <mxGeometry x="-560" y="-444" width="120" height="120" as="geometry" />
        </mxCell>
        <mxCell id="gLvKTpUvaCiPlKPC_Aii-162" value="" style="endArrow=classic;html=1;rounded=0;exitX=1.008;exitY=0.6;exitDx=0;exitDy=0;exitPerimeter=0;entryX=0.019;entryY=0.491;entryDx=0;entryDy=0;entryPerimeter=0;" edge="1" parent="1">
          <mxGeometry width="50" height="50" relative="1" as="geometry">
            <mxPoint x="-440" y="-394" as="sourcePoint" />
            <mxPoint x="-328" y="-395" as="targetPoint" />
          </mxGeometry>
        </mxCell>
        <mxCell id="gLvKTpUvaCiPlKPC_Aii-163" value="DB에서 삭제요청" style="text;html=1;strokeColor=none;fillColor=none;align=center;verticalAlign=middle;whiteSpace=wrap;rounded=0;" vertex="1" parent="1">
          <mxGeometry x="-440" y="-424" width="120" height="30" as="geometry" />
        </mxCell>
        <mxCell id="gLvKTpUvaCiPlKPC_Aii-164" value="&lt;span style=&quot;font-size: 19px;&quot;&gt;adminFileboard.jsp&lt;br&gt;&lt;/span&gt;" style="rounded=0;whiteSpace=wrap;html=1;" vertex="1" parent="1">
          <mxGeometry x="-580" y="-584" width="170" height="60" as="geometry" />
        </mxCell>
        <mxCell id="gLvKTpUvaCiPlKPC_Aii-165" value="삭제후 자료실 관리페이지로 이동" style="text;html=1;strokeColor=none;fillColor=none;align=center;verticalAlign=middle;whiteSpace=wrap;rounded=0;" vertex="1" parent="1">
          <mxGeometry x="-502.5" y="-494" width="110" height="30" as="geometry" />
        </mxCell>
        <mxCell id="gLvKTpUvaCiPlKPC_Aii-166" value="" style="endArrow=classic;html=1;rounded=0;exitX=0.5;exitY=0;exitDx=0;exitDy=0;" edge="1" parent="1">
          <mxGeometry width="50" height="50" relative="1" as="geometry">
            <mxPoint x="-500" y="-444" as="sourcePoint" />
            <mxPoint x="-500" y="-524" as="targetPoint" />
          </mxGeometry>
        </mxCell>
        <mxCell id="gLvKTpUvaCiPlKPC_Aii-167" value="&lt;font style=&quot;font-size: 18px;&quot;&gt;filterInsert.do&lt;/font&gt;" style="text;html=1;strokeColor=none;fillColor=#FFFF78;align=center;verticalAlign=middle;whiteSpace=wrap;rounded=0;" vertex="1" parent="1">
          <mxGeometry x="-270" y="-30" width="120" height="86" as="geometry" />
        </mxCell>
        <mxCell id="gLvKTpUvaCiPlKPC_Aii-168" value="" style="endArrow=classic;html=1;rounded=0;exitX=1.002;exitY=0.43;exitDx=0;exitDy=0;exitPerimeter=0;" edge="1" parent="1" source="gLvKTpUvaCiPlKPC_Aii-167">
          <mxGeometry width="50" height="50" relative="1" as="geometry">
            <mxPoint x="70" y="-43.960000000000036" as="sourcePoint" />
            <mxPoint x="40" y="6" as="targetPoint" />
          </mxGeometry>
        </mxCell>
        <mxCell id="gLvKTpUvaCiPlKPC_Aii-169" value="" style="endArrow=classic;html=1;rounded=0;exitX=1;exitY=0.5;exitDx=0;exitDy=0;" edge="1" parent="1" source="gLvKTpUvaCiPlKPC_Aii-172">
          <mxGeometry width="50" height="50" relative="1" as="geometry">
            <mxPoint x="220" y="5.499999999999943" as="sourcePoint" />
            <mxPoint x="290" y="6" as="targetPoint" />
          </mxGeometry>
        </mxCell>
        <mxCell id="gLvKTpUvaCiPlKPC_Aii-170" value="DB저장" style="text;html=1;strokeColor=none;fillColor=none;align=center;verticalAlign=middle;whiteSpace=wrap;rounded=0;" vertex="1" parent="1">
          <mxGeometry x="321" y="-94" width="120" height="30" as="geometry" />
        </mxCell>
        <mxCell id="gLvKTpUvaCiPlKPC_Aii-171" value="저장후 필터링 단어 페이지로 이동" style="text;html=1;strokeColor=none;fillColor=none;align=center;verticalAlign=middle;whiteSpace=wrap;rounded=0;" vertex="1" parent="1">
          <mxGeometry x="410" y="-34" width="90" height="30" as="geometry" />
        </mxCell>
        <mxCell id="gLvKTpUvaCiPlKPC_Aii-172" value="&lt;font style=&quot;font-size: 19px;&quot;&gt;filterInsert.jsp&lt;/font&gt;" style="rounded=0;whiteSpace=wrap;html=1;" vertex="1" parent="1">
          <mxGeometry x="40" y="-24" width="160" height="60" as="geometry" />
        </mxCell>
        <mxCell id="gLvKTpUvaCiPlKPC_Aii-173" value="" style="endArrow=classic;html=1;rounded=0;exitX=1;exitY=0.5;exitDx=0;exitDy=0;" edge="1" parent="1">
          <mxGeometry width="50" height="50" relative="1" as="geometry">
            <mxPoint x="410" y="5.660000000000025" as="sourcePoint" />
            <mxPoint x="500" y="5.660000000000025" as="targetPoint" />
          </mxGeometry>
        </mxCell>
        <mxCell id="gLvKTpUvaCiPlKPC_Aii-174" value="" style="endArrow=classic;html=1;rounded=0;exitX=0.5;exitY=0;exitDx=0;exitDy=0;" edge="1" parent="1">
          <mxGeometry width="50" height="50" relative="1" as="geometry">
            <mxPoint x="350" y="-44" as="sourcePoint" />
            <mxPoint x="350" y="-114" as="targetPoint" />
          </mxGeometry>
        </mxCell>
        <mxCell id="gLvKTpUvaCiPlKPC_Aii-175" value="필터링 입력 페이지로&lt;br&gt;이동" style="text;html=1;strokeColor=none;fillColor=none;align=center;verticalAlign=middle;whiteSpace=wrap;rounded=0;" vertex="1" parent="1">
          <mxGeometry x="-130" y="-34" width="120" height="30" as="geometry" />
        </mxCell>
        <mxCell id="gLvKTpUvaCiPlKPC_Aii-176" value="단어추가 요청" style="text;html=1;strokeColor=none;fillColor=none;align=center;verticalAlign=middle;whiteSpace=wrap;rounded=0;" vertex="1" parent="1">
          <mxGeometry x="180" y="-24" width="120" height="30" as="geometry" />
        </mxCell>
        <mxCell id="gLvKTpUvaCiPlKPC_Aii-177" value="&lt;font style=&quot;font-size: 18px;&quot;&gt;filterword&lt;/font&gt;" style="shape=cube;whiteSpace=wrap;html=1;boundedLbl=1;backgroundOutline=1;darkOpacity=0.05;darkOpacity2=0.1;" vertex="1" parent="1">
          <mxGeometry x="-270" y="-244" width="120" height="110" as="geometry" />
        </mxCell>
        <mxCell id="gLvKTpUvaCiPlKPC_Aii-178" value="" style="endArrow=classic;startArrow=classic;html=1;rounded=0;exitX=0.5;exitY=0;exitDx=0;exitDy=0;entryX=0.5;entryY=1.018;entryDx=0;entryDy=0;entryPerimeter=0;" edge="1" parent="1" source="gLvKTpUvaCiPlKPC_Aii-167" target="gLvKTpUvaCiPlKPC_Aii-177">
          <mxGeometry width="50" height="50" relative="1" as="geometry">
            <mxPoint x="-60" y="-114" as="sourcePoint" />
            <mxPoint x="100" y="-114" as="targetPoint" />
          </mxGeometry>
        </mxCell>
        <mxCell id="gLvKTpUvaCiPlKPC_Aii-179" value="&lt;font style=&quot;font-size: 18px;&quot;&gt;filterInsert.do&lt;/font&gt;" style="text;html=1;strokeColor=none;fillColor=#FFFF78;align=center;verticalAlign=middle;whiteSpace=wrap;rounded=0;" vertex="1" parent="1">
          <mxGeometry x="290" y="-44" width="120" height="100" as="geometry" />
        </mxCell>
        <mxCell id="gLvKTpUvaCiPlKPC_Aii-180" value="&lt;font style=&quot;font-size: 18px;&quot;&gt;filterword&lt;/font&gt;" style="shape=cube;whiteSpace=wrap;html=1;boundedLbl=1;backgroundOutline=1;darkOpacity=0.05;darkOpacity2=0.1;" vertex="1" parent="1">
          <mxGeometry x="290" y="-224" width="120" height="110" as="geometry" />
        </mxCell>
        <mxCell id="gLvKTpUvaCiPlKPC_Aii-181" value="&lt;font style=&quot;font-size: 19px;&quot;&gt;filterInsert.jsp&lt;/font&gt;" style="rounded=0;whiteSpace=wrap;html=1;" vertex="1" parent="1">
          <mxGeometry x="500" y="-24" width="160" height="60" as="geometry" />
        </mxCell>
        <mxCell id="gLvKTpUvaCiPlKPC_Aii-182" value="&lt;font style=&quot;font-size: 18px;&quot;&gt;filterDelete.do&lt;/font&gt;" style="text;html=1;strokeColor=none;fillColor=#FFFF78;align=center;verticalAlign=middle;whiteSpace=wrap;rounded=0;" vertex="1" parent="1">
          <mxGeometry x="60" y="-194" width="120" height="100" as="geometry" />
        </mxCell>
        <mxCell id="gLvKTpUvaCiPlKPC_Aii-183" value="" style="endArrow=classic;html=1;rounded=0;exitX=0.5;exitY=0;exitDx=0;exitDy=0;" edge="1" parent="1">
          <mxGeometry width="50" height="50" relative="1" as="geometry">
            <mxPoint x="119.5" y="-24" as="sourcePoint" />
            <mxPoint x="119.5" y="-94" as="targetPoint" />
          </mxGeometry>
        </mxCell>
        <mxCell id="gLvKTpUvaCiPlKPC_Aii-184" value="단어삭제 요청" style="text;html=1;strokeColor=none;fillColor=none;align=center;verticalAlign=middle;whiteSpace=wrap;rounded=0;" vertex="1" parent="1">
          <mxGeometry x="100" y="-74" width="120" height="30" as="geometry" />
        </mxCell>
        <mxCell id="gLvKTpUvaCiPlKPC_Aii-185" value="" style="endArrow=classic;html=1;rounded=0;exitX=0.5;exitY=0;exitDx=0;exitDy=0;" edge="1" parent="1">
          <mxGeometry width="50" height="50" relative="1" as="geometry">
            <mxPoint x="120" y="-194" as="sourcePoint" />
            <mxPoint x="120" y="-264" as="targetPoint" />
          </mxGeometry>
        </mxCell>
        <mxCell id="gLvKTpUvaCiPlKPC_Aii-186" value="" style="endArrow=classic;html=1;rounded=0;exitX=1.008;exitY=0.6;exitDx=0;exitDy=0;exitPerimeter=0;entryX=0;entryY=0;entryDx=0;entryDy=90;entryPerimeter=0;" edge="1" parent="1" source="gLvKTpUvaCiPlKPC_Aii-182" target="gLvKTpUvaCiPlKPC_Aii-180">
          <mxGeometry width="50" height="50" relative="1" as="geometry">
            <mxPoint x="-30" y="-14" as="sourcePoint" />
            <mxPoint x="20" y="-64" as="targetPoint" />
          </mxGeometry>
        </mxCell>
        <mxCell id="gLvKTpUvaCiPlKPC_Aii-187" value="DB에서 삭제요청" style="text;html=1;strokeColor=none;fillColor=none;align=center;verticalAlign=middle;whiteSpace=wrap;rounded=0;" vertex="1" parent="1">
          <mxGeometry x="170" y="-164" width="120" height="30" as="geometry" />
        </mxCell>
        <mxCell id="gLvKTpUvaCiPlKPC_Aii-188" value="&lt;font style=&quot;font-size: 19px;&quot;&gt;filterInsert.jsp&lt;/font&gt;" style="rounded=0;whiteSpace=wrap;html=1;" vertex="1" parent="1">
          <mxGeometry x="40" y="-324" width="160" height="60" as="geometry" />
        </mxCell>
        <mxCell id="gLvKTpUvaCiPlKPC_Aii-189" value="삭제 후 필터링 단어 페이지로 이동" style="text;html=1;strokeColor=none;fillColor=none;align=center;verticalAlign=middle;whiteSpace=wrap;rounded=0;" vertex="1" parent="1">
          <mxGeometry x="120" y="-244" width="90" height="30" as="geometry" />
        </mxCell>
        <mxCell id="gLvKTpUvaCiPlKPC_Aii-190" value="필터링 단어 추가 페이지 요청" style="text;html=1;strokeColor=none;fillColor=none;align=center;verticalAlign=middle;whiteSpace=wrap;rounded=0;" vertex="1" parent="1">
          <mxGeometry x="-420" y="26" width="140" height="30" as="geometry" />
        </mxCell>
        <mxCell id="gLvKTpUvaCiPlKPC_Aii-191" value="" style="endArrow=classic;html=1;rounded=0;exitX=1;exitY=0.25;exitDx=0;exitDy=0;" edge="1" parent="1" source="gLvKTpUvaCiPlKPC_Aii-143">
          <mxGeometry width="50" height="50" relative="1" as="geometry">
            <mxPoint x="-310.00000000000006" y="30" as="sourcePoint" />
            <mxPoint x="-270" as="targetPoint" />
          </mxGeometry>
        </mxCell>
        <mxCell id="gLvKTpUvaCiPlKPC_Aii-193" value="" style="endArrow=classic;html=1;rounded=0;exitX=1.004;exitY=0.438;exitDx=0;exitDy=0;exitPerimeter=0;" edge="1" parent="1">
          <mxGeometry width="50" height="50" relative="1" as="geometry">
            <mxPoint x="-499.68000000000006" y="119.99999999999994" as="sourcePoint" />
            <mxPoint x="-500" y="210.95999999999998" as="targetPoint" />
          </mxGeometry>
        </mxCell>
        <mxCell id="gLvKTpUvaCiPlKPC_Aii-194" value="" style="endArrow=classic;html=1;rounded=0;exitX=0.5;exitY=1;exitDx=0;exitDy=0;" edge="1" parent="1">
          <mxGeometry width="50" height="50" relative="1" as="geometry">
            <mxPoint x="-500" y="310.96" as="sourcePoint" />
            <mxPoint x="-500.5" y="401.92" as="targetPoint" />
          </mxGeometry>
        </mxCell>
        <mxCell id="gLvKTpUvaCiPlKPC_Aii-195" value="&lt;font style=&quot;font-size: 19px;&quot;&gt;communityMgmt.jsp&lt;br&gt;&lt;/font&gt;" style="rounded=0;whiteSpace=wrap;html=1;" vertex="1" parent="1">
          <mxGeometry x="-590" y="400.96" width="180" height="60" as="geometry" />
        </mxCell>
        <mxCell id="gLvKTpUvaCiPlKPC_Aii-196" value="커뮤니티 관리페이지로 이동" style="text;html=1;strokeColor=none;fillColor=none;align=center;verticalAlign=middle;whiteSpace=wrap;rounded=0;" vertex="1" parent="1">
          <mxGeometry x="-500" y="340.96" width="130" height="30" as="geometry" />
        </mxCell>
        <mxCell id="gLvKTpUvaCiPlKPC_Aii-197" value="커뮤니티 관리 페이지&lt;br&gt;요청" style="text;html=1;strokeColor=none;fillColor=none;align=center;verticalAlign=middle;whiteSpace=wrap;rounded=0;" vertex="1" parent="1">
          <mxGeometry x="-502.5" y="160.95999999999998" width="132.5" height="30" as="geometry" />
        </mxCell>
        <mxCell id="gLvKTpUvaCiPlKPC_Aii-198" value="&lt;font style=&quot;font-size: 18px;&quot;&gt;communityMgmt.do&lt;/font&gt;" style="text;html=1;strokeColor=none;fillColor=#FFFF78;align=center;verticalAlign=middle;whiteSpace=wrap;rounded=0;" vertex="1" parent="1">
          <mxGeometry x="-580" y="210.95999999999998" width="160" height="100" as="geometry" />
        </mxCell>
        <mxCell id="gLvKTpUvaCiPlKPC_Aii-204" value="&lt;span style=&quot;font-size: 18px;&quot;&gt;communityDelete.do&lt;/span&gt;" style="text;html=1;strokeColor=none;fillColor=#FFFF78;align=center;verticalAlign=middle;whiteSpace=wrap;rounded=0;" vertex="1" parent="1">
          <mxGeometry x="-590" y="570.96" width="180" height="100" as="geometry" />
        </mxCell>
        <mxCell id="gLvKTpUvaCiPlKPC_Aii-205" value="" style="endArrow=classic;html=1;rounded=0;exitX=0.5;exitY=1;exitDx=0;exitDy=0;" edge="1" parent="1" source="gLvKTpUvaCiPlKPC_Aii-195" target="gLvKTpUvaCiPlKPC_Aii-204">
          <mxGeometry width="50" height="50" relative="1" as="geometry">
            <mxPoint x="-60" y="670.96" as="sourcePoint" />
            <mxPoint x="-10" y="620.96" as="targetPoint" />
          </mxGeometry>
        </mxCell>
        <mxCell id="gLvKTpUvaCiPlKPC_Aii-206" value="커뮤니티 게시글&amp;nbsp; 삭제 요청" style="text;html=1;strokeColor=none;fillColor=none;align=center;verticalAlign=middle;whiteSpace=wrap;rounded=0;" vertex="1" parent="1">
          <mxGeometry x="-500" y="500.96" width="130" height="30" as="geometry" />
        </mxCell>
        <mxCell id="gLvKTpUvaCiPlKPC_Aii-207" value="&lt;span style=&quot;font-size: 18px;&quot;&gt;community&lt;/span&gt;" style="shape=cube;whiteSpace=wrap;html=1;boundedLbl=1;backgroundOutline=1;darkOpacity=0.05;darkOpacity2=0.1;" vertex="1" parent="1">
          <mxGeometry x="-250" y="565.96" width="120" height="110" as="geometry" />
        </mxCell>
        <mxCell id="gLvKTpUvaCiPlKPC_Aii-208" value="&lt;font style=&quot;font-size: 19px;&quot;&gt;communityMgmt.jsp&lt;br&gt;&lt;/font&gt;" style="rounded=0;whiteSpace=wrap;html=1;" vertex="1" parent="1">
          <mxGeometry x="-590" y="780.96" width="180" height="60" as="geometry" />
        </mxCell>
        <mxCell id="gLvKTpUvaCiPlKPC_Aii-209" value="" style="endArrow=classic;html=1;rounded=0;exitX=0.5;exitY=1;exitDx=0;exitDy=0;" edge="1" parent="1">
          <mxGeometry width="50" height="50" relative="1" as="geometry">
            <mxPoint x="-502.5" y="670.96" as="sourcePoint" />
            <mxPoint x="-502.5" y="780.96" as="targetPoint" />
          </mxGeometry>
        </mxCell>
        <mxCell id="gLvKTpUvaCiPlKPC_Aii-210" value="삭제후 커뮤니티 관리페이지로 이동" style="text;html=1;strokeColor=none;fillColor=none;align=center;verticalAlign=middle;whiteSpace=wrap;rounded=0;" vertex="1" parent="1">
          <mxGeometry x="-503" y="710.96" width="172.5" height="30" as="geometry" />
        </mxCell>
        <mxCell id="gLvKTpUvaCiPlKPC_Aii-211" value="DB에서 삭제요청" style="text;html=1;strokeColor=none;fillColor=none;align=center;verticalAlign=middle;whiteSpace=wrap;rounded=0;" vertex="1" parent="1">
          <mxGeometry x="-390" y="590.96" width="120" height="30" as="geometry" />
        </mxCell>
        <mxCell id="gLvKTpUvaCiPlKPC_Aii-212" value="" style="endArrow=classic;html=1;rounded=0;exitX=1;exitY=0.5;exitDx=0;exitDy=0;entryX=0;entryY=0.491;entryDx=0;entryDy=0;entryPerimeter=0;" edge="1" parent="1" source="gLvKTpUvaCiPlKPC_Aii-204" target="gLvKTpUvaCiPlKPC_Aii-207">
          <mxGeometry width="50" height="50" relative="1" as="geometry">
            <mxPoint x="-60" y="570.96" as="sourcePoint" />
            <mxPoint x="-10" y="520.96" as="targetPoint" />
          </mxGeometry>
        </mxCell>
        <mxCell id="gLvKTpUvaCiPlKPC_Aii-213" value="&lt;font style=&quot;font-size: 18px;&quot;&gt;filterword&lt;/font&gt;" style="shape=cube;whiteSpace=wrap;html=1;boundedLbl=1;backgroundOutline=1;darkOpacity=0.05;darkOpacity2=0.1;" vertex="1" parent="1">
          <mxGeometry x="-830" y="220.95999999999998" width="120" height="110" as="geometry" />
        </mxCell>
        <mxCell id="gLvKTpUvaCiPlKPC_Aii-214" value="&lt;span style=&quot;font-size: 18px;&quot;&gt;community&lt;/span&gt;" style="shape=cube;whiteSpace=wrap;html=1;boundedLbl=1;backgroundOutline=1;darkOpacity=0.05;darkOpacity2=0.1;" vertex="1" parent="1">
          <mxGeometry x="-960" y="220.95999999999998" width="120" height="110" as="geometry" />
        </mxCell>
        <mxCell id="gLvKTpUvaCiPlKPC_Aii-215" value="DB요청" style="text;html=1;strokeColor=none;fillColor=none;align=center;verticalAlign=middle;whiteSpace=wrap;rounded=0;" vertex="1" parent="1">
          <mxGeometry x="-700" y="230.95999999999998" width="120" height="30" as="geometry" />
        </mxCell>
        <mxCell id="gLvKTpUvaCiPlKPC_Aii-216" value="DB전달" style="text;html=1;strokeColor=none;fillColor=none;align=center;verticalAlign=middle;whiteSpace=wrap;rounded=0;" vertex="1" parent="1">
          <mxGeometry x="-700" y="260.96" width="120" height="30" as="geometry" />
        </mxCell>
        <mxCell id="gLvKTpUvaCiPlKPC_Aii-217" value="" style="endArrow=classic;startArrow=classic;html=1;rounded=0;" edge="1" parent="1">
          <mxGeometry width="50" height="50" relative="1" as="geometry">
            <mxPoint x="-710" y="261" as="sourcePoint" />
            <mxPoint x="-580" y="260.96" as="targetPoint" />
          </mxGeometry>
        </mxCell>
        <mxCell id="gLvKTpUvaCiPlKPC_Aii-218" value="" style="endArrow=classic;html=1;rounded=0;exitX=1;exitY=0.75;exitDx=0;exitDy=0;" edge="1" parent="1" source="gLvKTpUvaCiPlKPC_Aii-143">
          <mxGeometry width="50" height="50" relative="1" as="geometry">
            <mxPoint x="-300" y="100" as="sourcePoint" />
            <mxPoint x="-240" y="150" as="targetPoint" />
          </mxGeometry>
        </mxCell>
        <mxCell id="gLvKTpUvaCiPlKPC_Aii-220" value="&lt;font style=&quot;font-size: 18px;&quot;&gt;adminMemberList.do&lt;/font&gt;" style="text;html=1;strokeColor=none;fillColor=#FFFF78;align=center;verticalAlign=middle;whiteSpace=wrap;rounded=0;" vertex="1" parent="1">
          <mxGeometry x="-240" y="100" width="180" height="100" as="geometry" />
        </mxCell>
        <mxCell id="gLvKTpUvaCiPlKPC_Aii-222" value="&lt;font style=&quot;font-size: 19px;&quot;&gt;adminMemberList.jsp&lt;/font&gt;" style="rounded=0;whiteSpace=wrap;html=1;" vertex="1" parent="1">
          <mxGeometry x="-230" y="270.96" width="190" height="60" as="geometry" />
        </mxCell>
        <mxCell id="gLvKTpUvaCiPlKPC_Aii-223" value="" style="endArrow=classic;html=1;rounded=0;exitX=0.5;exitY=1;exitDx=0;exitDy=0;" edge="1" parent="1" source="gLvKTpUvaCiPlKPC_Aii-220">
          <mxGeometry width="50" height="50" relative="1" as="geometry">
            <mxPoint x="-150" y="180" as="sourcePoint" />
            <mxPoint x="-150" y="270" as="targetPoint" />
          </mxGeometry>
        </mxCell>
        <mxCell id="gLvKTpUvaCiPlKPC_Aii-224" value="&lt;font style=&quot;font-size: 18px;&quot;&gt;memberDelete.do&lt;/font&gt;" style="text;html=1;strokeColor=none;fillColor=#FFFF78;align=center;verticalAlign=middle;whiteSpace=wrap;rounded=0;" vertex="1" parent="1">
          <mxGeometry x="70" y="250.96" width="160" height="100" as="geometry" />
        </mxCell>
        <mxCell id="gLvKTpUvaCiPlKPC_Aii-226" value="" style="endArrow=classic;html=1;rounded=0;exitX=1;exitY=0.5;exitDx=0;exitDy=0;entryX=0;entryY=0.5;entryDx=0;entryDy=0;" edge="1" parent="1" source="gLvKTpUvaCiPlKPC_Aii-222" target="gLvKTpUvaCiPlKPC_Aii-224">
          <mxGeometry width="50" height="50" relative="1" as="geometry">
            <mxPoint x="-50" y="370" as="sourcePoint" />
            <mxPoint y="320" as="targetPoint" />
          </mxGeometry>
        </mxCell>
        <mxCell id="gLvKTpUvaCiPlKPC_Aii-227" value="회원관리 페이지 요청" style="text;html=1;strokeColor=none;fillColor=none;align=center;verticalAlign=middle;whiteSpace=wrap;rounded=0;" vertex="1" parent="1">
          <mxGeometry x="-362.5" y="90" width="132.5" height="30" as="geometry" />
        </mxCell>
        <mxCell id="gLvKTpUvaCiPlKPC_Aii-228" value="회원관리 페이지로 이동" style="text;html=1;strokeColor=none;fillColor=none;align=center;verticalAlign=middle;whiteSpace=wrap;rounded=0;" vertex="1" parent="1">
          <mxGeometry x="-150" y="220.96" width="130" height="30" as="geometry" />
        </mxCell>
        <mxCell id="gLvKTpUvaCiPlKPC_Aii-229" value="&lt;span style=&quot;font-size: 18px;&quot;&gt;member&lt;/span&gt;" style="shape=cube;whiteSpace=wrap;html=1;boundedLbl=1;backgroundOutline=1;darkOpacity=0.05;darkOpacity2=0.1;" vertex="1" parent="1">
          <mxGeometry x="340" y="250.96" width="120" height="110" as="geometry" />
        </mxCell>
        <mxCell id="gLvKTpUvaCiPlKPC_Aii-230" value="" style="endArrow=classic;html=1;rounded=0;exitX=1.008;exitY=0.6;exitDx=0;exitDy=0;exitPerimeter=0;entryX=0.019;entryY=0.491;entryDx=0;entryDy=0;entryPerimeter=0;" edge="1" parent="1">
          <mxGeometry width="50" height="50" relative="1" as="geometry">
            <mxPoint x="230" y="300.96" as="sourcePoint" />
            <mxPoint x="342" y="299.96" as="targetPoint" />
          </mxGeometry>
        </mxCell>
        <mxCell id="gLvKTpUvaCiPlKPC_Aii-231" value="DB에서 삭제요청" style="text;html=1;strokeColor=none;fillColor=none;align=center;verticalAlign=middle;whiteSpace=wrap;rounded=0;" vertex="1" parent="1">
          <mxGeometry x="230" y="270.96" width="120" height="30" as="geometry" />
        </mxCell>
        <mxCell id="gLvKTpUvaCiPlKPC_Aii-232" value="" style="endArrow=classic;html=1;rounded=0;exitX=0.5;exitY=1;exitDx=0;exitDy=0;" edge="1" parent="1" source="gLvKTpUvaCiPlKPC_Aii-224">
          <mxGeometry width="50" height="50" relative="1" as="geometry">
            <mxPoint x="80" y="250" as="sourcePoint" />
            <mxPoint x="150" y="440" as="targetPoint" />
          </mxGeometry>
        </mxCell>
        <mxCell id="gLvKTpUvaCiPlKPC_Aii-233" value="&lt;font style=&quot;font-size: 19px;&quot;&gt;adminMemberList.jsp&lt;/font&gt;" style="rounded=0;whiteSpace=wrap;html=1;" vertex="1" parent="1">
          <mxGeometry x="55" y="440.96" width="190" height="60" as="geometry" />
        </mxCell>
        <mxCell id="gLvKTpUvaCiPlKPC_Aii-234" value="회원관리 페이지로 이동" style="text;html=1;strokeColor=none;fillColor=none;align=center;verticalAlign=middle;whiteSpace=wrap;rounded=0;" vertex="1" parent="1">
          <mxGeometry x="150" y="380" width="130" height="30" as="geometry" />
        </mxCell>
        <mxCell id="gLvKTpUvaCiPlKPC_Aii-235" value="회원 삭제 요청" style="text;html=1;strokeColor=none;fillColor=none;align=center;verticalAlign=middle;whiteSpace=wrap;rounded=0;" vertex="1" parent="1">
          <mxGeometry x="-40" y="270.96" width="110" height="30" as="geometry" />
        </mxCell>
        <mxCell id="gLvKTpUvaCiPlKPC_Aii-236" value="" style="endArrow=classic;html=1;rounded=0;exitX=0;exitY=0.25;exitDx=0;exitDy=0;" edge="1" parent="1" source="gLvKTpUvaCiPlKPC_Aii-143">
          <mxGeometry width="50" height="50" relative="1" as="geometry">
            <mxPoint x="-680" y="-100" as="sourcePoint" />
            <mxPoint x="-800" y="-40" as="targetPoint" />
          </mxGeometry>
        </mxCell>
        <mxCell id="gLvKTpUvaCiPlKPC_Aii-237" value="&lt;span style=&quot;font-size: 18px;&quot;&gt;applyList.do&lt;br&gt;&lt;/span&gt;" style="text;html=1;strokeColor=none;fillColor=#FFFF78;align=center;verticalAlign=middle;whiteSpace=wrap;rounded=0;" vertex="1" parent="1">
          <mxGeometry x="-920" y="-94" width="120" height="100" as="geometry" />
        </mxCell>
        <mxCell id="gLvKTpUvaCiPlKPC_Aii-238" value="이벤트 관리페이지 요청" style="text;html=1;strokeColor=none;fillColor=none;align=center;verticalAlign=middle;whiteSpace=wrap;rounded=0;" vertex="1" parent="1">
          <mxGeometry x="-700" y="-14" width="140" height="30" as="geometry" />
        </mxCell>
        <mxCell id="gLvKTpUvaCiPlKPC_Aii-239" value="" style="endArrow=classic;html=1;rounded=0;exitX=0.5;exitY=0;exitDx=0;exitDy=0;" edge="1" parent="1" source="gLvKTpUvaCiPlKPC_Aii-237">
          <mxGeometry width="50" height="50" relative="1" as="geometry">
            <mxPoint x="-680" y="-100" as="sourcePoint" />
            <mxPoint x="-860" y="-180" as="targetPoint" />
          </mxGeometry>
        </mxCell>
        <mxCell id="gLvKTpUvaCiPlKPC_Aii-240" value="&lt;span style=&quot;font-size: 19px;&quot;&gt;applyList.jsp&lt;/span&gt;" style="rounded=0;whiteSpace=wrap;html=1;" vertex="1" parent="1">
          <mxGeometry x="-940" y="-230" width="160" height="60" as="geometry" />
        </mxCell>
        <mxCell id="gLvKTpUvaCiPlKPC_Aii-241" value="이벤트 관리페이지로&lt;br&gt;이동" style="text;html=1;strokeColor=none;fillColor=none;align=center;verticalAlign=middle;whiteSpace=wrap;rounded=0;" vertex="1" parent="1">
          <mxGeometry x="-860" y="-144" width="140" height="30" as="geometry" />
        </mxCell>
        <mxCell id="gLvKTpUvaCiPlKPC_Aii-245" value="" style="endArrow=classic;html=1;rounded=0;exitX=0.5;exitY=0;exitDx=0;exitDy=0;entryX=0.5;entryY=1;entryDx=0;entryDy=0;" edge="1" parent="1" source="gLvKTpUvaCiPlKPC_Aii-237" target="gLvKTpUvaCiPlKPC_Aii-240">
          <mxGeometry width="50" height="50" relative="1" as="geometry">
            <mxPoint x="-680" y="-100" as="sourcePoint" />
            <mxPoint x="-630" y="-150" as="targetPoint" />
          </mxGeometry>
        </mxCell>
        <mxCell id="gLvKTpUvaCiPlKPC_Aii-247" value="" style="endArrow=classic;html=1;rounded=0;exitX=0.5;exitY=0;exitDx=0;exitDy=0;" edge="1" parent="1" source="gLvKTpUvaCiPlKPC_Aii-240">
          <mxGeometry width="50" height="50" relative="1" as="geometry">
            <mxPoint x="-680" y="-220" as="sourcePoint" />
            <mxPoint x="-860" y="-330" as="targetPoint" />
          </mxGeometry>
        </mxCell>
        <mxCell id="gLvKTpUvaCiPlKPC_Aii-248" value="&lt;span style=&quot;font-size: 18px;&quot;&gt;winners.do&lt;br&gt;&lt;/span&gt;" style="text;html=1;strokeColor=none;fillColor=#FFFF78;align=center;verticalAlign=middle;whiteSpace=wrap;rounded=0;" vertex="1" parent="1">
          <mxGeometry x="-920" y="-434" width="120" height="100" as="geometry" />
        </mxCell>
        <mxCell id="gLvKTpUvaCiPlKPC_Aii-249" value="" style="endArrow=classic;html=1;rounded=0;exitX=0.5;exitY=0;exitDx=0;exitDy=0;" edge="1" parent="1">
          <mxGeometry width="50" height="50" relative="1" as="geometry">
            <mxPoint x="-861.18" y="-434" as="sourcePoint" />
            <mxPoint x="-861" y="-510" as="targetPoint" />
          </mxGeometry>
        </mxCell>
        <mxCell id="gLvKTpUvaCiPlKPC_Aii-250" value="&lt;span style=&quot;font-size: 19px;&quot;&gt;winners.jsp&lt;/span&gt;" style="rounded=0;whiteSpace=wrap;html=1;" vertex="1" parent="1">
          <mxGeometry x="-940" y="-570" width="160" height="60" as="geometry" />
        </mxCell>
        <mxCell id="gLvKTpUvaCiPlKPC_Aii-251" value="당첨자 확인 요청" style="text;html=1;strokeColor=none;fillColor=none;align=center;verticalAlign=middle;whiteSpace=wrap;rounded=0;" vertex="1" parent="1">
          <mxGeometry x="-860" y="-294" width="140" height="30" as="geometry" />
        </mxCell>
        <mxCell id="gLvKTpUvaCiPlKPC_Aii-252" value="당첨자 확인 페이지로&lt;br&gt;이동" style="text;html=1;strokeColor=none;fillColor=none;align=center;verticalAlign=middle;whiteSpace=wrap;rounded=0;" vertex="1" parent="1">
          <mxGeometry x="-870" y="-480" width="140" height="30" as="geometry" />
        </mxCell>
        <mxCell id="gLvKTpUvaCiPlKPC_Aii-253" value="" style="endArrow=classic;html=1;rounded=0;exitX=0;exitY=0.5;exitDx=0;exitDy=0;" edge="1" parent="1" source="gLvKTpUvaCiPlKPC_Aii-250">
          <mxGeometry width="50" height="50" relative="1" as="geometry">
            <mxPoint x="-1160" y="-600" as="sourcePoint" />
            <mxPoint x="-1080" y="-540" as="targetPoint" />
          </mxGeometry>
        </mxCell>
        <mxCell id="gLvKTpUvaCiPlKPC_Aii-254" value="&lt;span style=&quot;font-size: 18px;&quot;&gt;winnerInsert.do&lt;br&gt;&lt;/span&gt;" style="text;html=1;strokeColor=none;fillColor=#FFFF78;align=center;verticalAlign=middle;whiteSpace=wrap;rounded=0;" vertex="1" parent="1">
          <mxGeometry x="-1220" y="-590" width="140" height="100" as="geometry" />
        </mxCell>
        <mxCell id="gLvKTpUvaCiPlKPC_Aii-256" value="당첨자 DB 등록 요청" style="text;html=1;strokeColor=none;fillColor=none;align=center;verticalAlign=middle;whiteSpace=wrap;rounded=0;" vertex="1" parent="1">
          <mxGeometry x="-1080" y="-570" width="140" height="30" as="geometry" />
        </mxCell>
        <mxCell id="gLvKTpUvaCiPlKPC_Aii-257" value="&lt;span style=&quot;font-size: 19px;&quot;&gt;winnerInsert.jsp&lt;/span&gt;" style="rounded=0;whiteSpace=wrap;html=1;" vertex="1" parent="1">
          <mxGeometry x="-1490" y="-570" width="160" height="60" as="geometry" />
        </mxCell>
        <mxCell id="gLvKTpUvaCiPlKPC_Aii-259" value="" style="endArrow=classic;html=1;rounded=0;exitX=0;exitY=0.5;exitDx=0;exitDy=0;entryX=1;entryY=0.5;entryDx=0;entryDy=0;" edge="1" parent="1" source="gLvKTpUvaCiPlKPC_Aii-254" target="gLvKTpUvaCiPlKPC_Aii-257">
          <mxGeometry width="50" height="50" relative="1" as="geometry">
            <mxPoint x="-880" y="-450" as="sourcePoint" />
            <mxPoint x="-830" y="-500" as="targetPoint" />
          </mxGeometry>
        </mxCell>
        <mxCell id="gLvKTpUvaCiPlKPC_Aii-260" value="당첨자 발표 글등록&lt;br&gt;페이지로 이동" style="text;html=1;strokeColor=none;fillColor=none;align=center;verticalAlign=middle;whiteSpace=wrap;rounded=0;" vertex="1" parent="1">
          <mxGeometry x="-1350" y="-570" width="160" height="30" as="geometry" />
        </mxCell>
        <mxCell id="gLvKTpUvaCiPlKPC_Aii-261" value="&lt;span style=&quot;font-size: 18px;&quot;&gt;winnerInsert.do&lt;br&gt;&lt;/span&gt;" style="text;html=1;strokeColor=none;fillColor=#FFFF78;align=center;verticalAlign=middle;whiteSpace=wrap;rounded=0;" vertex="1" parent="1">
          <mxGeometry x="-1750" y="-594" width="140" height="100" as="geometry" />
        </mxCell>
        <mxCell id="gLvKTpUvaCiPlKPC_Aii-263" value="" style="endArrow=classic;html=1;rounded=0;exitX=-0.017;exitY=0.431;exitDx=0;exitDy=0;entryX=1;entryY=0.5;entryDx=0;entryDy=0;exitPerimeter=0;" edge="1" parent="1" source="gLvKTpUvaCiPlKPC_Aii-257" target="gLvKTpUvaCiPlKPC_Aii-261">
          <mxGeometry width="50" height="50" relative="1" as="geometry">
            <mxPoint x="-1200" y="-430" as="sourcePoint" />
            <mxPoint x="-1150" y="-480" as="targetPoint" />
          </mxGeometry>
        </mxCell>
        <mxCell id="gLvKTpUvaCiPlKPC_Aii-264" value="당첨확인 글등록" style="text;html=1;strokeColor=none;fillColor=none;align=center;verticalAlign=middle;whiteSpace=wrap;rounded=0;" vertex="1" parent="1">
          <mxGeometry x="-1610" y="-580" width="140" height="30" as="geometry" />
        </mxCell>
        <mxCell id="gLvKTpUvaCiPlKPC_Aii-266" value="" style="endArrow=classic;html=1;rounded=0;exitX=0.5;exitY=1;exitDx=0;exitDy=0;" edge="1" parent="1">
          <mxGeometry width="50" height="50" relative="1" as="geometry">
            <mxPoint x="-1680" y="-490" as="sourcePoint" />
            <mxPoint x="-1680" y="-390" as="targetPoint" />
          </mxGeometry>
        </mxCell>
        <mxCell id="gLvKTpUvaCiPlKPC_Aii-268" value="&lt;span style=&quot;font-size: 18px;&quot;&gt;winnerlist&lt;/span&gt;" style="shape=cube;whiteSpace=wrap;html=1;boundedLbl=1;backgroundOutline=1;darkOpacity=0.05;darkOpacity2=0.1;" vertex="1" parent="1">
          <mxGeometry x="-1730" y="-390.00000000000006" width="120" height="110" as="geometry" />
        </mxCell>
        <mxCell id="gLvKTpUvaCiPlKPC_Aii-269" value="&lt;span style=&quot;font-size: 19px;&quot;&gt;winnerList.jsp&lt;/span&gt;" style="rounded=0;whiteSpace=wrap;html=1;" vertex="1" parent="1">
          <mxGeometry x="-2050" y="-574" width="160" height="60" as="geometry" />
        </mxCell>
        <mxCell id="gLvKTpUvaCiPlKPC_Aii-270" value="" style="endArrow=classic;html=1;rounded=0;exitX=-0.017;exitY=0.431;exitDx=0;exitDy=0;entryX=1;entryY=0.5;entryDx=0;entryDy=0;exitPerimeter=0;" edge="1" parent="1">
          <mxGeometry width="50" height="50" relative="1" as="geometry">
            <mxPoint x="-1753" y="-547.48" as="sourcePoint" />
            <mxPoint x="-1890" y="-547.48" as="targetPoint" />
          </mxGeometry>
        </mxCell>
        <mxCell id="gLvKTpUvaCiPlKPC_Aii-271" value="당첨자발표 게시글 등록" style="text;html=1;strokeColor=none;fillColor=none;align=center;verticalAlign=middle;whiteSpace=wrap;rounded=0;" vertex="1" parent="1">
          <mxGeometry x="-1890" y="-583.48" width="140" height="30" as="geometry" />
        </mxCell>
        <mxCell id="gLvKTpUvaCiPlKPC_Aii-272" value="&lt;span style=&quot;font-size: 18px;&quot;&gt;winner&lt;/span&gt;" style="shape=cube;whiteSpace=wrap;html=1;boundedLbl=1;backgroundOutline=1;darkOpacity=0.05;darkOpacity2=0.1;" vertex="1" parent="1">
          <mxGeometry x="-1200" y="-390" width="120" height="110" as="geometry" />
        </mxCell>
        <mxCell id="gLvKTpUvaCiPlKPC_Aii-273" value="" style="endArrow=classic;html=1;rounded=0;exitX=0.5;exitY=1;exitDx=0;exitDy=0;" edge="1" parent="1">
          <mxGeometry width="50" height="50" relative="1" as="geometry">
            <mxPoint x="-1140.48" y="-490" as="sourcePoint" />
            <mxPoint x="-1140.48" y="-390" as="targetPoint" />
          </mxGeometry>
        </mxCell>
        <mxCell id="gLvKTpUvaCiPlKPC_Aii-274" value="당첨자 발표게시물 DB&lt;br&gt;등록" style="text;html=1;strokeColor=none;fillColor=none;align=center;verticalAlign=middle;whiteSpace=wrap;rounded=0;" vertex="1" parent="1">
          <mxGeometry x="-1680" y="-450" width="140" height="30" as="geometry" />
        </mxCell>
        <mxCell id="gLvKTpUvaCiPlKPC_Aii-275" value="당첨자 DB 등록" style="text;html=1;strokeColor=none;fillColor=none;align=center;verticalAlign=middle;whiteSpace=wrap;rounded=0;" vertex="1" parent="1">
          <mxGeometry x="-1270" y="-454" width="140" height="30" as="geometry" />
        </mxCell>
      </root>
    </mxGraphModel>
  </diagram>
</mxfile>
